<mxfile host="app.diagrams.net" modified="2024-07-14T10:08:16.877Z" agent="Mozilla/5.0 (Macintosh; Intel Mac OS X 10_15_7) AppleWebKit/605.1.15 (KHTML, like Gecko) Version/17.5 Safari/605.1.15" etag="oCnPawQW-cp44UdJj9GZ" version="24.6.5" type="google">
  <diagram name="Page-1" id="z-ZaAXcBPtwcB056gR2P">
    <mxGraphModel grid="1" page="1" gridSize="10" guides="1" tooltips="1" connect="1" arrows="1" fold="1" pageScale="1" pageWidth="850" pageHeight="1100" math="0" shadow="0">
      <root>
        <mxCell id="0" />
        <mxCell id="1" parent="0" />
        <mxCell id="NIBur6jb49XK7Kl8lDhK-76" style="edgeStyle=orthogonalEdgeStyle;rounded=0;orthogonalLoop=1;jettySize=auto;html=1;exitX=1;exitY=0;exitDx=0;exitDy=0;entryX=0;entryY=0.5;entryDx=0;entryDy=0;" edge="1" parent="1" source="NIBur6jb49XK7Kl8lDhK-1" target="NIBur6jb49XK7Kl8lDhK-7">
          <mxGeometry relative="1" as="geometry">
            <mxPoint x="140.43478260869574" y="100" as="targetPoint" />
          </mxGeometry>
        </mxCell>
        <mxCell id="NIBur6jb49XK7Kl8lDhK-77" style="edgeStyle=orthogonalEdgeStyle;rounded=0;orthogonalLoop=1;jettySize=auto;html=1;exitX=1;exitY=0.25;exitDx=0;exitDy=0;entryX=0;entryY=0.5;entryDx=0;entryDy=0;" edge="1" parent="1" source="NIBur6jb49XK7Kl8lDhK-1" target="NIBur6jb49XK7Kl8lDhK-10">
          <mxGeometry relative="1" as="geometry" />
        </mxCell>
        <mxCell id="NIBur6jb49XK7Kl8lDhK-78" style="edgeStyle=orthogonalEdgeStyle;rounded=0;orthogonalLoop=1;jettySize=auto;html=1;exitX=1;exitY=0.5;exitDx=0;exitDy=0;entryX=0;entryY=0.5;entryDx=0;entryDy=0;" edge="1" parent="1" source="NIBur6jb49XK7Kl8lDhK-1" target="NIBur6jb49XK7Kl8lDhK-3">
          <mxGeometry relative="1" as="geometry">
            <Array as="points">
              <mxPoint x="180" y="350" />
              <mxPoint x="180" y="310" />
            </Array>
          </mxGeometry>
        </mxCell>
        <mxCell id="NIBur6jb49XK7Kl8lDhK-79" style="edgeStyle=orthogonalEdgeStyle;rounded=0;orthogonalLoop=1;jettySize=auto;html=1;exitX=1;exitY=0.75;exitDx=0;exitDy=0;entryX=0;entryY=0.5;entryDx=0;entryDy=0;" edge="1" parent="1" source="NIBur6jb49XK7Kl8lDhK-1" target="NIBur6jb49XK7Kl8lDhK-13">
          <mxGeometry relative="1" as="geometry" />
        </mxCell>
        <mxCell id="NIBur6jb49XK7Kl8lDhK-80" style="edgeStyle=orthogonalEdgeStyle;rounded=0;orthogonalLoop=1;jettySize=auto;html=1;exitX=1;exitY=1;exitDx=0;exitDy=0;entryX=0;entryY=0.5;entryDx=0;entryDy=0;" edge="1" parent="1" source="NIBur6jb49XK7Kl8lDhK-1" target="NIBur6jb49XK7Kl8lDhK-16">
          <mxGeometry relative="1" as="geometry">
            <Array as="points">
              <mxPoint x="150" y="380" />
              <mxPoint x="150" y="515" />
            </Array>
          </mxGeometry>
        </mxCell>
        <mxCell id="NIBur6jb49XK7Kl8lDhK-81" style="edgeStyle=orthogonalEdgeStyle;rounded=0;orthogonalLoop=1;jettySize=auto;html=1;exitX=1;exitY=1;exitDx=0;exitDy=0;entryX=0;entryY=0.5;entryDx=0;entryDy=0;" edge="1" parent="1" source="NIBur6jb49XK7Kl8lDhK-1" target="NIBur6jb49XK7Kl8lDhK-19">
          <mxGeometry relative="1" as="geometry">
            <Array as="points">
              <mxPoint x="140" y="615" />
            </Array>
          </mxGeometry>
        </mxCell>
        <mxCell id="NIBur6jb49XK7Kl8lDhK-1" value="" style="rounded=0;whiteSpace=wrap;html=1;" vertex="1" parent="1">
          <mxGeometry x="20" y="320" width="120" height="60" as="geometry" />
        </mxCell>
        <mxCell id="NIBur6jb49XK7Kl8lDhK-2" value="&lt;b&gt;Person&lt;/b&gt;" style="text;strokeColor=none;align=center;fillColor=none;html=1;verticalAlign=middle;whiteSpace=wrap;rounded=0;" vertex="1" parent="1">
          <mxGeometry x="50" y="335" width="60" height="30" as="geometry" />
        </mxCell>
        <mxCell id="NIBur6jb49XK7Kl8lDhK-5" value="" style="group" connectable="0" vertex="1" parent="1">
          <mxGeometry x="190" y="285" width="110" height="50" as="geometry" />
        </mxCell>
        <mxCell id="NIBur6jb49XK7Kl8lDhK-3" value="" style="shape=hexagon;perimeter=hexagonPerimeter2;whiteSpace=wrap;html=1;fixedSize=1;" vertex="1" parent="NIBur6jb49XK7Kl8lDhK-5">
          <mxGeometry width="110" height="50" as="geometry" />
        </mxCell>
        <mxCell id="NIBur6jb49XK7Kl8lDhK-4" value="&lt;b&gt;age &amp;lt; 16&lt;/b&gt;" style="text;strokeColor=none;align=center;fillColor=none;html=1;verticalAlign=middle;whiteSpace=wrap;rounded=0;" vertex="1" parent="NIBur6jb49XK7Kl8lDhK-5">
          <mxGeometry x="25" y="10" width="60" height="30" as="geometry" />
        </mxCell>
        <mxCell id="NIBur6jb49XK7Kl8lDhK-6" value="" style="group" connectable="0" vertex="1" parent="1">
          <mxGeometry x="190" y="80" width="110" height="50" as="geometry" />
        </mxCell>
        <mxCell id="NIBur6jb49XK7Kl8lDhK-7" value="" style="shape=hexagon;perimeter=hexagonPerimeter2;whiteSpace=wrap;html=1;fixedSize=1;" vertex="1" parent="NIBur6jb49XK7Kl8lDhK-6">
          <mxGeometry width="110" height="50" as="geometry" />
        </mxCell>
        <mxCell id="NIBur6jb49XK7Kl8lDhK-8" value="&lt;b&gt;age &amp;lt; 3&lt;/b&gt;" style="text;strokeColor=none;align=center;fillColor=none;html=1;verticalAlign=middle;whiteSpace=wrap;rounded=0;" vertex="1" parent="NIBur6jb49XK7Kl8lDhK-6">
          <mxGeometry x="25" y="10" width="60" height="30" as="geometry" />
        </mxCell>
        <mxCell id="NIBur6jb49XK7Kl8lDhK-9" value="" style="group" connectable="0" vertex="1" parent="1">
          <mxGeometry x="190" y="180" width="110" height="50" as="geometry" />
        </mxCell>
        <mxCell id="NIBur6jb49XK7Kl8lDhK-10" value="" style="shape=hexagon;perimeter=hexagonPerimeter2;whiteSpace=wrap;html=1;fixedSize=1;" vertex="1" parent="NIBur6jb49XK7Kl8lDhK-9">
          <mxGeometry width="110" height="50" as="geometry" />
        </mxCell>
        <mxCell id="NIBur6jb49XK7Kl8lDhK-11" value="&lt;b&gt;age &amp;lt; 12&lt;/b&gt;" style="text;strokeColor=none;align=center;fillColor=none;html=1;verticalAlign=middle;whiteSpace=wrap;rounded=0;" vertex="1" parent="NIBur6jb49XK7Kl8lDhK-9">
          <mxGeometry x="25" y="10" width="60" height="30" as="geometry" />
        </mxCell>
        <mxCell id="NIBur6jb49XK7Kl8lDhK-12" value="" style="group" connectable="0" vertex="1" parent="1">
          <mxGeometry x="190" y="380" width="110" height="50" as="geometry" />
        </mxCell>
        <mxCell id="NIBur6jb49XK7Kl8lDhK-91" style="edgeStyle=orthogonalEdgeStyle;rounded=0;orthogonalLoop=1;jettySize=auto;html=1;exitX=1;exitY=0.5;exitDx=0;exitDy=0;" edge="1" parent="NIBur6jb49XK7Kl8lDhK-12" source="NIBur6jb49XK7Kl8lDhK-13">
          <mxGeometry relative="1" as="geometry">
            <mxPoint x="190" y="25.103448275862092" as="targetPoint" />
          </mxGeometry>
        </mxCell>
        <mxCell id="NIBur6jb49XK7Kl8lDhK-13" value="" style="shape=hexagon;perimeter=hexagonPerimeter2;whiteSpace=wrap;html=1;fixedSize=1;" vertex="1" parent="NIBur6jb49XK7Kl8lDhK-12">
          <mxGeometry width="110" height="50" as="geometry" />
        </mxCell>
        <mxCell id="NIBur6jb49XK7Kl8lDhK-14" value="&lt;b&gt;age &amp;gt;= 16 and age &amp;lt;= 18&lt;/b&gt;" style="text;strokeColor=none;align=center;fillColor=none;html=1;verticalAlign=middle;whiteSpace=wrap;rounded=0;" vertex="1" parent="NIBur6jb49XK7Kl8lDhK-12">
          <mxGeometry x="25" y="10" width="60" height="30" as="geometry" />
        </mxCell>
        <mxCell id="NIBur6jb49XK7Kl8lDhK-15" value="" style="group" connectable="0" vertex="1" parent="1">
          <mxGeometry x="190" y="490" width="110" height="50" as="geometry" />
        </mxCell>
        <mxCell id="NIBur6jb49XK7Kl8lDhK-16" value="" style="shape=hexagon;perimeter=hexagonPerimeter2;whiteSpace=wrap;html=1;fixedSize=1;" vertex="1" parent="NIBur6jb49XK7Kl8lDhK-15">
          <mxGeometry width="110" height="50" as="geometry" />
        </mxCell>
        <mxCell id="NIBur6jb49XK7Kl8lDhK-17" value="&lt;b&gt;age over 16&lt;/b&gt;" style="text;strokeColor=none;align=center;fillColor=none;html=1;verticalAlign=middle;whiteSpace=wrap;rounded=0;" vertex="1" parent="NIBur6jb49XK7Kl8lDhK-15">
          <mxGeometry x="25" y="10" width="60" height="30" as="geometry" />
        </mxCell>
        <mxCell id="NIBur6jb49XK7Kl8lDhK-18" value="" style="group" connectable="0" vertex="1" parent="1">
          <mxGeometry x="190" y="590" width="110" height="50" as="geometry" />
        </mxCell>
        <mxCell id="NIBur6jb49XK7Kl8lDhK-19" value="" style="shape=hexagon;perimeter=hexagonPerimeter2;whiteSpace=wrap;html=1;fixedSize=1;" vertex="1" parent="NIBur6jb49XK7Kl8lDhK-18">
          <mxGeometry width="110" height="50" as="geometry" />
        </mxCell>
        <mxCell id="NIBur6jb49XK7Kl8lDhK-20" value="&lt;b&gt;age &amp;gt; 18&lt;/b&gt;" style="text;strokeColor=none;align=center;fillColor=none;html=1;verticalAlign=middle;whiteSpace=wrap;rounded=0;" vertex="1" parent="NIBur6jb49XK7Kl8lDhK-18">
          <mxGeometry x="25" y="10" width="60" height="30" as="geometry" />
        </mxCell>
        <mxCell id="NIBur6jb49XK7Kl8lDhK-23" value="" style="group" connectable="0" vertex="1" parent="1">
          <mxGeometry x="720" y="50" width="120" height="60" as="geometry" />
        </mxCell>
        <mxCell id="NIBur6jb49XK7Kl8lDhK-21" value="" style="rounded=0;whiteSpace=wrap;html=1;" vertex="1" parent="NIBur6jb49XK7Kl8lDhK-23">
          <mxGeometry width="120" height="60" as="geometry" />
        </mxCell>
        <mxCell id="NIBur6jb49XK7Kl8lDhK-22" value="&lt;b&gt;No Admission Fee&lt;/b&gt;" style="text;strokeColor=none;align=center;fillColor=none;html=1;verticalAlign=middle;whiteSpace=wrap;rounded=0;" vertex="1" parent="NIBur6jb49XK7Kl8lDhK-23">
          <mxGeometry x="20" y="15" width="80" height="30" as="geometry" />
        </mxCell>
        <mxCell id="NIBur6jb49XK7Kl8lDhK-27" value="" style="group" connectable="0" vertex="1" parent="1">
          <mxGeometry x="720" y="200" width="120" height="60" as="geometry" />
        </mxCell>
        <mxCell id="NIBur6jb49XK7Kl8lDhK-28" value="" style="rounded=0;whiteSpace=wrap;html=1;" vertex="1" parent="NIBur6jb49XK7Kl8lDhK-27">
          <mxGeometry width="120" height="60" as="geometry" />
        </mxCell>
        <mxCell id="NIBur6jb49XK7Kl8lDhK-29" value="&lt;b&gt;1 Free RIde&lt;/b&gt;" style="text;strokeColor=none;align=center;fillColor=none;html=1;verticalAlign=middle;whiteSpace=wrap;rounded=0;" vertex="1" parent="NIBur6jb49XK7Kl8lDhK-27">
          <mxGeometry x="20" y="15" width="80" height="30" as="geometry" />
        </mxCell>
        <mxCell id="NIBur6jb49XK7Kl8lDhK-30" value="" style="group" connectable="0" vertex="1" parent="1">
          <mxGeometry x="380" y="140" width="110" height="50" as="geometry" />
        </mxCell>
        <mxCell id="NIBur6jb49XK7Kl8lDhK-31" value="" style="shape=hexagon;perimeter=hexagonPerimeter2;whiteSpace=wrap;html=1;fixedSize=1;" vertex="1" parent="NIBur6jb49XK7Kl8lDhK-30">
          <mxGeometry width="110" height="50" as="geometry" />
        </mxCell>
        <mxCell id="NIBur6jb49XK7Kl8lDhK-32" value="&lt;b&gt;Accompanied by Adult?&lt;/b&gt;" style="text;strokeColor=none;align=center;fillColor=none;html=1;verticalAlign=middle;whiteSpace=wrap;rounded=0;" vertex="1" parent="NIBur6jb49XK7Kl8lDhK-30">
          <mxGeometry x="25" y="10" width="60" height="30" as="geometry" />
        </mxCell>
        <mxCell id="NIBur6jb49XK7Kl8lDhK-33" value="" style="group" connectable="0" vertex="1" parent="1">
          <mxGeometry x="380" y="210" width="110" height="50" as="geometry" />
        </mxCell>
        <mxCell id="NIBur6jb49XK7Kl8lDhK-34" value="" style="shape=hexagon;perimeter=hexagonPerimeter2;whiteSpace=wrap;html=1;fixedSize=1;" vertex="1" parent="NIBur6jb49XK7Kl8lDhK-33">
          <mxGeometry width="110" height="50" as="geometry" />
        </mxCell>
        <mxCell id="NIBur6jb49XK7Kl8lDhK-35" value="&lt;b&gt;Is Weekday?&lt;/b&gt;" style="text;strokeColor=none;align=center;fillColor=none;html=1;verticalAlign=middle;whiteSpace=wrap;rounded=0;" vertex="1" parent="NIBur6jb49XK7Kl8lDhK-33">
          <mxGeometry x="25" y="10" width="60" height="30" as="geometry" />
        </mxCell>
        <mxCell id="NIBur6jb49XK7Kl8lDhK-39" value="" style="group" connectable="0" vertex="1" parent="1">
          <mxGeometry x="540" y="280" width="120" height="60" as="geometry" />
        </mxCell>
        <mxCell id="NIBur6jb49XK7Kl8lDhK-45" value="" style="group" connectable="0" vertex="1" parent="NIBur6jb49XK7Kl8lDhK-39">
          <mxGeometry width="120" height="60" as="geometry" />
        </mxCell>
        <mxCell id="NIBur6jb49XK7Kl8lDhK-74" value="" style="group" connectable="0" vertex="1" parent="NIBur6jb49XK7Kl8lDhK-45">
          <mxGeometry width="120" height="60" as="geometry" />
        </mxCell>
        <mxCell id="NIBur6jb49XK7Kl8lDhK-40" value="" style="rounded=0;whiteSpace=wrap;html=1;" vertex="1" parent="NIBur6jb49XK7Kl8lDhK-74">
          <mxGeometry width="120" height="60" as="geometry" />
        </mxCell>
        <mxCell id="NIBur6jb49XK7Kl8lDhK-41" value="&lt;b&gt;Half Admission Fee&lt;/b&gt;" style="text;strokeColor=none;align=center;fillColor=none;html=1;verticalAlign=middle;whiteSpace=wrap;rounded=0;" vertex="1" parent="NIBur6jb49XK7Kl8lDhK-74">
          <mxGeometry x="15" y="15" width="90" height="30" as="geometry" />
        </mxCell>
        <mxCell id="NIBur6jb49XK7Kl8lDhK-42" value="" style="group" connectable="0" vertex="1" parent="1">
          <mxGeometry x="720" y="130" width="120" height="60" as="geometry" />
        </mxCell>
        <mxCell id="NIBur6jb49XK7Kl8lDhK-25" value="" style="rounded=0;whiteSpace=wrap;html=1;" vertex="1" parent="NIBur6jb49XK7Kl8lDhK-42">
          <mxGeometry width="120" height="60" as="geometry" />
        </mxCell>
        <mxCell id="NIBur6jb49XK7Kl8lDhK-26" value="&lt;b&gt;Quarter Admission Fee&lt;/b&gt;" style="text;strokeColor=none;align=center;fillColor=none;html=1;verticalAlign=middle;whiteSpace=wrap;rounded=0;" vertex="1" parent="NIBur6jb49XK7Kl8lDhK-42">
          <mxGeometry x="15" y="15" width="90" height="30" as="geometry" />
        </mxCell>
        <mxCell id="NIBur6jb49XK7Kl8lDhK-46" value="" style="group" connectable="0" vertex="1" parent="1">
          <mxGeometry x="380" y="380" width="110" height="50" as="geometry" />
        </mxCell>
        <mxCell id="NIBur6jb49XK7Kl8lDhK-47" value="" style="shape=hexagon;perimeter=hexagonPerimeter2;whiteSpace=wrap;html=1;fixedSize=1;" vertex="1" parent="NIBur6jb49XK7Kl8lDhK-46">
          <mxGeometry width="110" height="50" as="geometry" />
        </mxCell>
        <mxCell id="NIBur6jb49XK7Kl8lDhK-48" value="&lt;b&gt;Is Weekend?&lt;/b&gt;" style="text;strokeColor=none;align=center;fillColor=none;html=1;verticalAlign=middle;whiteSpace=wrap;rounded=0;" vertex="1" parent="NIBur6jb49XK7Kl8lDhK-46">
          <mxGeometry x="25" y="10" width="60" height="30" as="geometry" />
        </mxCell>
        <mxCell id="NIBur6jb49XK7Kl8lDhK-52" value="" style="group" connectable="0" vertex="1" parent="1">
          <mxGeometry x="550" y="360" width="110" height="50" as="geometry" />
        </mxCell>
        <mxCell id="NIBur6jb49XK7Kl8lDhK-53" value="" style="shape=hexagon;perimeter=hexagonPerimeter2;whiteSpace=wrap;html=1;fixedSize=1;" vertex="1" parent="NIBur6jb49XK7Kl8lDhK-52">
          <mxGeometry width="110" height="50" as="geometry" />
        </mxCell>
        <mxCell id="NIBur6jb49XK7Kl8lDhK-54" value="&lt;b&gt;Is Student?&lt;/b&gt;" style="text;strokeColor=none;align=center;fillColor=none;html=1;verticalAlign=middle;whiteSpace=wrap;rounded=0;" vertex="1" parent="NIBur6jb49XK7Kl8lDhK-52">
          <mxGeometry x="25" y="10" width="60" height="30" as="geometry" />
        </mxCell>
        <mxCell id="NIBur6jb49XK7Kl8lDhK-55" value="" style="group" connectable="0" vertex="1" parent="1">
          <mxGeometry x="720" y="440" width="120" height="60" as="geometry" />
        </mxCell>
        <mxCell id="NIBur6jb49XK7Kl8lDhK-56" value="" style="rounded=0;whiteSpace=wrap;html=1;" vertex="1" parent="NIBur6jb49XK7Kl8lDhK-55">
          <mxGeometry width="120" height="60" as="geometry" />
        </mxCell>
        <mxCell id="NIBur6jb49XK7Kl8lDhK-57" value="&lt;b&gt;No Student Confession&lt;/b&gt;" style="text;strokeColor=none;align=center;fillColor=none;html=1;verticalAlign=middle;whiteSpace=wrap;rounded=0;" vertex="1" parent="NIBur6jb49XK7Kl8lDhK-55">
          <mxGeometry x="20" y="15" width="80" height="30" as="geometry" />
        </mxCell>
        <mxCell id="NIBur6jb49XK7Kl8lDhK-58" value="" style="group" connectable="0" vertex="1" parent="1">
          <mxGeometry x="720" y="355" width="120" height="60" as="geometry" />
        </mxCell>
        <mxCell id="NIBur6jb49XK7Kl8lDhK-59" value="" style="rounded=0;whiteSpace=wrap;html=1;" vertex="1" parent="NIBur6jb49XK7Kl8lDhK-58">
          <mxGeometry width="120" height="60" as="geometry" />
        </mxCell>
        <mxCell id="NIBur6jb49XK7Kl8lDhK-60" value="&lt;b&gt;Half Admission Fee&lt;/b&gt;" style="text;strokeColor=none;align=center;fillColor=none;html=1;verticalAlign=middle;whiteSpace=wrap;rounded=0;" vertex="1" parent="NIBur6jb49XK7Kl8lDhK-58">
          <mxGeometry x="20" y="15" width="80" height="30" as="geometry" />
        </mxCell>
        <mxCell id="NIBur6jb49XK7Kl8lDhK-61" value="" style="group" connectable="0" vertex="1" parent="1">
          <mxGeometry x="380" y="490" width="110" height="50" as="geometry" />
        </mxCell>
        <mxCell id="NIBur6jb49XK7Kl8lDhK-62" value="" style="shape=hexagon;perimeter=hexagonPerimeter2;whiteSpace=wrap;html=1;fixedSize=1;" vertex="1" parent="NIBur6jb49XK7Kl8lDhK-61">
          <mxGeometry width="110" height="50" as="geometry" />
        </mxCell>
        <mxCell id="NIBur6jb49XK7Kl8lDhK-63" value="&lt;b&gt;In Group of 10 or more?&lt;/b&gt;" style="text;strokeColor=none;align=center;fillColor=none;html=1;verticalAlign=middle;whiteSpace=wrap;rounded=0;" vertex="1" parent="NIBur6jb49XK7Kl8lDhK-61">
          <mxGeometry x="25" y="10" width="60" height="30" as="geometry" />
        </mxCell>
        <mxCell id="NIBur6jb49XK7Kl8lDhK-64" value="" style="group" connectable="0" vertex="1" parent="1">
          <mxGeometry x="720" y="520" width="120" height="60" as="geometry" />
        </mxCell>
        <mxCell id="NIBur6jb49XK7Kl8lDhK-65" value="" style="rounded=0;whiteSpace=wrap;html=1;" vertex="1" parent="NIBur6jb49XK7Kl8lDhK-64">
          <mxGeometry width="120" height="60" as="geometry" />
        </mxCell>
        <mxCell id="NIBur6jb49XK7Kl8lDhK-66" value="&lt;b&gt;10% Discount&lt;/b&gt;" style="text;strokeColor=none;align=center;fillColor=none;html=1;verticalAlign=middle;whiteSpace=wrap;rounded=0;" vertex="1" parent="NIBur6jb49XK7Kl8lDhK-64">
          <mxGeometry x="20" y="15" width="80" height="30" as="geometry" />
        </mxCell>
        <mxCell id="NIBur6jb49XK7Kl8lDhK-68" value="" style="group" connectable="0" vertex="1" parent="1">
          <mxGeometry x="720" y="600" width="120" height="60" as="geometry" />
        </mxCell>
        <mxCell id="NIBur6jb49XK7Kl8lDhK-69" value="" style="rounded=0;whiteSpace=wrap;html=1;" vertex="1" parent="NIBur6jb49XK7Kl8lDhK-68">
          <mxGeometry width="120" height="60" as="geometry" />
        </mxCell>
        <mxCell id="NIBur6jb49XK7Kl8lDhK-70" value="&lt;b&gt;Full Admission Fee&lt;/b&gt;" style="text;strokeColor=none;align=center;fillColor=none;html=1;verticalAlign=middle;whiteSpace=wrap;rounded=0;" vertex="1" parent="NIBur6jb49XK7Kl8lDhK-68">
          <mxGeometry x="20" y="15" width="80" height="30" as="geometry" />
        </mxCell>
        <mxCell id="NIBur6jb49XK7Kl8lDhK-82" style="edgeStyle=orthogonalEdgeStyle;rounded=0;orthogonalLoop=1;jettySize=auto;html=1;exitX=1;exitY=0.5;exitDx=0;exitDy=0;" edge="1" parent="1" source="NIBur6jb49XK7Kl8lDhK-7" target="NIBur6jb49XK7Kl8lDhK-21">
          <mxGeometry relative="1" as="geometry" />
        </mxCell>
        <mxCell id="NIBur6jb49XK7Kl8lDhK-84" style="edgeStyle=orthogonalEdgeStyle;rounded=0;orthogonalLoop=1;jettySize=auto;html=1;exitX=1;exitY=0.5;exitDx=0;exitDy=0;entryX=0;entryY=0.5;entryDx=0;entryDy=0;" edge="1" parent="1" source="NIBur6jb49XK7Kl8lDhK-10" target="NIBur6jb49XK7Kl8lDhK-31">
          <mxGeometry relative="1" as="geometry" />
        </mxCell>
        <mxCell id="NIBur6jb49XK7Kl8lDhK-85" style="edgeStyle=orthogonalEdgeStyle;rounded=0;orthogonalLoop=1;jettySize=auto;html=1;exitX=1;exitY=0.5;exitDx=0;exitDy=0;entryX=0;entryY=0.5;entryDx=0;entryDy=0;" edge="1" parent="1" source="NIBur6jb49XK7Kl8lDhK-10" target="NIBur6jb49XK7Kl8lDhK-34">
          <mxGeometry relative="1" as="geometry" />
        </mxCell>
        <mxCell id="NIBur6jb49XK7Kl8lDhK-86" style="edgeStyle=orthogonalEdgeStyle;rounded=0;orthogonalLoop=1;jettySize=auto;html=1;exitX=1;exitY=0.5;exitDx=0;exitDy=0;entryX=0.011;entryY=0.596;entryDx=0;entryDy=0;entryPerimeter=0;" edge="1" parent="1" source="NIBur6jb49XK7Kl8lDhK-31" target="NIBur6jb49XK7Kl8lDhK-25">
          <mxGeometry relative="1" as="geometry" />
        </mxCell>
        <mxCell id="NIBur6jb49XK7Kl8lDhK-88" style="edgeStyle=orthogonalEdgeStyle;rounded=0;orthogonalLoop=1;jettySize=auto;html=1;exitX=1;exitY=0.5;exitDx=0;exitDy=0;entryX=0.017;entryY=0.591;entryDx=0;entryDy=0;entryPerimeter=0;" edge="1" parent="1" source="NIBur6jb49XK7Kl8lDhK-34" target="NIBur6jb49XK7Kl8lDhK-28">
          <mxGeometry relative="1" as="geometry" />
        </mxCell>
        <mxCell id="NIBur6jb49XK7Kl8lDhK-89" style="edgeStyle=orthogonalEdgeStyle;rounded=0;orthogonalLoop=1;jettySize=auto;html=1;exitX=1;exitY=0.5;exitDx=0;exitDy=0;entryX=0;entryY=0.5;entryDx=0;entryDy=0;" edge="1" parent="1" source="NIBur6jb49XK7Kl8lDhK-3" target="NIBur6jb49XK7Kl8lDhK-40">
          <mxGeometry relative="1" as="geometry" />
        </mxCell>
        <mxCell id="NIBur6jb49XK7Kl8lDhK-92" style="edgeStyle=orthogonalEdgeStyle;rounded=0;orthogonalLoop=1;jettySize=auto;html=1;exitX=1;exitY=0.5;exitDx=0;exitDy=0;entryX=0;entryY=0.5;entryDx=0;entryDy=0;" edge="1" parent="1" source="NIBur6jb49XK7Kl8lDhK-47" target="NIBur6jb49XK7Kl8lDhK-53">
          <mxGeometry relative="1" as="geometry" />
        </mxCell>
        <mxCell id="NIBur6jb49XK7Kl8lDhK-93" style="edgeStyle=orthogonalEdgeStyle;rounded=0;orthogonalLoop=1;jettySize=auto;html=1;exitX=1;exitY=0.5;exitDx=0;exitDy=0;entryX=0;entryY=0.75;entryDx=0;entryDy=0;" edge="1" parent="1" source="NIBur6jb49XK7Kl8lDhK-47" target="NIBur6jb49XK7Kl8lDhK-56">
          <mxGeometry relative="1" as="geometry">
            <Array as="points">
              <mxPoint x="520" y="405" />
              <mxPoint x="520" y="485" />
            </Array>
          </mxGeometry>
        </mxCell>
        <mxCell id="NIBur6jb49XK7Kl8lDhK-94" style="edgeStyle=orthogonalEdgeStyle;rounded=0;orthogonalLoop=1;jettySize=auto;html=1;exitX=1;exitY=0.5;exitDx=0;exitDy=0;entryX=0;entryY=0.5;entryDx=0;entryDy=0;" edge="1" parent="1" source="NIBur6jb49XK7Kl8lDhK-53" target="NIBur6jb49XK7Kl8lDhK-59">
          <mxGeometry relative="1" as="geometry" />
        </mxCell>
        <mxCell id="NIBur6jb49XK7Kl8lDhK-95" style="edgeStyle=orthogonalEdgeStyle;rounded=0;orthogonalLoop=1;jettySize=auto;html=1;exitX=1;exitY=0.5;exitDx=0;exitDy=0;entryX=0;entryY=0.5;entryDx=0;entryDy=0;" edge="1" parent="1" source="NIBur6jb49XK7Kl8lDhK-16" target="NIBur6jb49XK7Kl8lDhK-62">
          <mxGeometry relative="1" as="geometry" />
        </mxCell>
        <mxCell id="NIBur6jb49XK7Kl8lDhK-96" style="edgeStyle=orthogonalEdgeStyle;rounded=0;orthogonalLoop=1;jettySize=auto;html=1;exitX=1;exitY=0.5;exitDx=0;exitDy=0;" edge="1" parent="1" source="NIBur6jb49XK7Kl8lDhK-62" target="NIBur6jb49XK7Kl8lDhK-65">
          <mxGeometry relative="1" as="geometry" />
        </mxCell>
        <mxCell id="NIBur6jb49XK7Kl8lDhK-98" style="edgeStyle=orthogonalEdgeStyle;rounded=0;orthogonalLoop=1;jettySize=auto;html=1;exitX=1;exitY=0.5;exitDx=0;exitDy=0;entryX=0;entryY=0.25;entryDx=0;entryDy=0;" edge="1" parent="1" source="NIBur6jb49XK7Kl8lDhK-19" target="NIBur6jb49XK7Kl8lDhK-69">
          <mxGeometry relative="1" as="geometry" />
        </mxCell>
        <mxCell id="NIBur6jb49XK7Kl8lDhK-99" value="Yes" style="text;strokeColor=none;align=center;fillColor=none;html=1;verticalAlign=middle;whiteSpace=wrap;rounded=0;" vertex="1" parent="1">
          <mxGeometry x="350" y="70" width="60" height="30" as="geometry" />
        </mxCell>
        <mxCell id="NIBur6jb49XK7Kl8lDhK-100" value="Yes" style="text;strokeColor=none;align=center;fillColor=none;html=1;verticalAlign=middle;whiteSpace=wrap;rounded=0;" vertex="1" parent="1">
          <mxGeometry x="290" y="180" width="60" height="30" as="geometry" />
        </mxCell>
        <mxCell id="NIBur6jb49XK7Kl8lDhK-101" value="Yes" style="text;strokeColor=none;align=center;fillColor=none;html=1;verticalAlign=middle;whiteSpace=wrap;rounded=0;" vertex="1" parent="1">
          <mxGeometry x="350" y="280" width="60" height="30" as="geometry" />
        </mxCell>
        <mxCell id="NIBur6jb49XK7Kl8lDhK-102" value="Yes" style="text;strokeColor=none;align=center;fillColor=none;html=1;verticalAlign=middle;whiteSpace=wrap;rounded=0;" vertex="1" parent="1">
          <mxGeometry x="290" y="380" width="60" height="30" as="geometry" />
        </mxCell>
        <mxCell id="NIBur6jb49XK7Kl8lDhK-103" value="Yes" style="text;strokeColor=none;align=center;fillColor=none;html=1;verticalAlign=middle;whiteSpace=wrap;rounded=0;" vertex="1" parent="1">
          <mxGeometry x="290" y="490" width="60" height="30" as="geometry" />
        </mxCell>
        <mxCell id="NIBur6jb49XK7Kl8lDhK-104" value="Yes" style="text;strokeColor=none;align=center;fillColor=none;html=1;verticalAlign=middle;whiteSpace=wrap;rounded=0;" vertex="1" parent="1">
          <mxGeometry x="290" y="590" width="60" height="30" as="geometry" />
        </mxCell>
        <mxCell id="NIBur6jb49XK7Kl8lDhK-105" value="Yes" style="text;strokeColor=none;align=center;fillColor=none;html=1;verticalAlign=middle;whiteSpace=wrap;rounded=0;" vertex="1" parent="1">
          <mxGeometry x="480" y="490" width="60" height="30" as="geometry" />
        </mxCell>
        <mxCell id="NIBur6jb49XK7Kl8lDhK-106" value="Yes" style="text;strokeColor=none;align=center;fillColor=none;html=1;verticalAlign=middle;whiteSpace=wrap;rounded=0;" vertex="1" parent="1">
          <mxGeometry x="510" y="455" width="60" height="30" as="geometry" />
        </mxCell>
        <mxCell id="NIBur6jb49XK7Kl8lDhK-107" value="No" style="text;strokeColor=none;align=center;fillColor=none;html=1;verticalAlign=middle;whiteSpace=wrap;rounded=0;" vertex="1" parent="1">
          <mxGeometry x="500" y="355" width="60" height="30" as="geometry" />
        </mxCell>
        <mxCell id="NIBur6jb49XK7Kl8lDhK-108" value="Yes" style="text;strokeColor=none;align=center;fillColor=none;html=1;verticalAlign=middle;whiteSpace=wrap;rounded=0;" vertex="1" parent="1">
          <mxGeometry x="650" y="360" width="60" height="30" as="geometry" />
        </mxCell>
        <mxCell id="NIBur6jb49XK7Kl8lDhK-109" value="Yes" style="text;strokeColor=none;align=center;fillColor=none;html=1;verticalAlign=middle;whiteSpace=wrap;rounded=0;" vertex="1" parent="1">
          <mxGeometry x="570" y="210" width="60" height="30" as="geometry" />
        </mxCell>
        <mxCell id="NIBur6jb49XK7Kl8lDhK-110" value="Yes" style="text;strokeColor=none;align=center;fillColor=none;html=1;verticalAlign=middle;whiteSpace=wrap;rounded=0;" vertex="1" parent="1">
          <mxGeometry x="570" y="140" width="60" height="30" as="geometry" />
        </mxCell>
        <mxCell id="NIBur6jb49XK7Kl8lDhK-111" value="&lt;b&gt;&lt;font style=&quot;font-size: 16px;&quot;&gt;fig. Decision Tree&lt;/font&gt;&lt;/b&gt;" style="text;strokeColor=none;align=center;fillColor=none;html=1;verticalAlign=middle;whiteSpace=wrap;rounded=0;" vertex="1" parent="1">
          <mxGeometry x="335" y="720" width="180" height="30" as="geometry" />
        </mxCell>
      </root>
    </mxGraphModel>
  </diagram>
</mxfile>
